<?xml version="1.0" encoding="utf-8"?>
<!-- Generator: Adobe Illustrator 21.1.0, SVG Export Plug-In . SVG Version: 6.00 Build 0)  -->
<svg version="1.1" id="Capa_1" xmlns="http://www.w3.org/2000/svg" xmlns:xlink="http://www.w3.org/1999/xlink" x="0px" y="0px"
	 viewBox="0 0 201 152" style="enable-background:new 0 0 201 152;" xml:space="preserve">
<style type="text/css">
	.st0{fill:url(#SVGID_1_);}
	.st1{fill-rule:evenodd;clip-rule:evenodd;fill:#FFFFFF;}
	.st2{fill:#FFFFFF;}
</style>
<g>
	<linearGradient id="SVGID_1_" gradientUnits="userSpaceOnUse" x1="24.2829" y1="114.1248" x2="156.1389" y2="19.6548">
		<stop  offset="0" style="stop-color:#1A1A1A"/>
		<stop  offset="1" style="stop-color:#2D2D2D"/>
	</linearGradient>
	<polygon class="st0" points="201,119 100.5,152 0,119 0,0 201,0 	"/>
	<g>
		<path class="st1" d="M171.5,77.9c0.3,0.1,0.5,0.1,0.8,0.1c2.4,0,4.3-0.8,5.8-2.3c1.5-1.5,2.2-3.5,2.2-5.8c0-1.5-0.3-2.9-0.7-4.2
			c-0.5-1.3-1.2-2.5-2.2-3.7c-0.9-1.2-2.1-2.2-3.4-2.8c-0.8-0.4-1.6-0.7-2.5-0.9c-0.6-0.1-0.9-0.1-1.5-0.1c-2.2,0-3.9,0.8-5.3,2.4
			c-1.4,1.5-2.1,3.6-2.1,6.1c0,1.5,0.3,2.9,0.7,4.2c0.4,1.3,1.1,2.5,2,3.6c0.9,1.1,2,2,3.1,2.6C169.4,77.5,170.4,77.8,171.5,77.9
			 M171.5,57.1L171.5,57.1c3.1,0.1,5.9,1.1,8,3.2c2.2,2.2,3.4,4.7,3.4,7.8c0,3.1-1,5.7-3.3,7.8c-2.2,2.1-4.8,3.1-8.1,3.1
			c-0.1,0-0.1,0-0.1,0c-3.4,0-6.1-1-8.3-3c-0.5-0.5-1-1.1-1.4-1.7c-1.2-1.8-1.8-3.8-1.8-6.2c0-2.3,0.6-4.3,1.8-6
			c0.4-0.6,0.9-1.2,1.5-1.8c2.2-2.1,4.8-3.2,8-3.2C171.3,57.1,171.4,57.1,171.5,57.1z M134.1,58.1L134.1,58.1v-0.9h1.1V63h-1.1v-0.3
			c0-1.4-0.4-2.3-1.1-2.9c-0.8-0.5-2-0.8-3.7-0.8h-1.9v6.8h2.9V64h1.1v6h-1.1v-0.5c0-0.7-0.2-1.2-0.7-1.5c-0.3-0.4-0.9-0.5-1.5-0.5
			h-0.8v10.7h2.1c1.6,0,2.7-0.3,3.5-0.9c0.7-0.5,1.1-1.6,1.1-2.9v-0.5h1.1V80h-1.1v-1H123v-0.9h1.4V61.2c0-1.1-0.2-1.6-0.4-1.9
			c-0.2-0.2-0.7-0.3-1.4-0.3H122v-1H134.1z M108.1,58.1L108.1,58.1l9.7,15.7V60.9c0-0.8-0.1-1.2-0.4-1.5c-0.2-0.2-0.7-0.3-1.4-0.3
			h-0.5v-1h4.8v1h-1.4v20h-1l-10.3-16.2v13.4c0,0.8,0.1,1.3,0.3,1.5c0.2,0.3,0.8,0.4,1.4,0.4h0.7V79c-1.6,0-3.2,0-4.8,0v-0.9h1.4
			V60.9c0-0.8-0.1-1.2-0.4-1.5c-0.2-0.2-1.1-0.3-1.8-0.3h-0.2v-1C105.5,58.1,106.8,58.1,108.1,58.1z M107,81.7L107,81.7
			c-0.4,0-0.8-0.1-1.3-0.1c-0.7-0.2-1.2-0.5-1.9-0.9L95,74.9c2.7-0.2,5-1.1,6.7-2.6c1.7-1.6,2.6-3.7,2.6-6.2c0-2.3-1-4.3-2.9-5.9
			c-1.7-1.6-4-2.6-6.5-2.6h0h0c-0.1,0-0.3,0-0.4,0l-0.1,0v0c-0.9,0-2.1,0.2-3,0.5c-1,0.2-2,0.7-3.1,1.3v-1.3h-5.5v0.9h0.7
			c0.7,0,1.1,0.1,1.4,0.4c0.2,0.2,0.3,0.8,0.3,1.5v17.2h-1.4V79h6.8v-0.9h-0.5c-0.8,0-1.1-0.1-1.4-0.4c-0.3-0.3-0.4-0.8-0.4-1.5
			v-2.4c2.1,1.1,4.2,2.3,6.1,3.6c1.8,1.3,6.7,4.2,7.2,4.5c2,1.2,3.4,1.3,4.7,1.3c0.3,0,0.5,0,0.7-0.1l0,0l0,0
			c0.4-0.1,0.7-0.2,1.1-0.3c0.7-0.2,1.1-0.5,1.6-0.9l-0.5-0.7c-0.2,0.1-1.3,0.3-1.6,0.3C107.4,81.7,107.2,81.7,107,81.7L107,81.7z
			 M94.8,73.9L94.8,73.9c-0.2,0-0.4,0-0.5,0c-0.7-0.1-1.3-0.3-2-0.5c-0.9-0.2-2.7-1.4-4-2.2V60.8c0.8-0.7,1.5-1.1,2.4-1.4
			c0.9-0.3,1.7-0.5,2.6-0.5c0.3,0,0.7,0,1,0.1v0l0.1,0c0.2,0,0.3,0,0.5,0.1v0c1.5,0.2,3,1.2,4.2,2.4c1.6,1.6,2.4,3.6,2.4,5.9
			c0,2-0.7,3.6-1.9,4.8C98.3,73.2,96.7,73.9,94.8,73.9L94.8,73.9z M68.1,58.9L68.1,58.9V58c4,0,8.1,0,12.1,0v-0.9h1.1V63h-1.1v-0.3
			c0-1.4-0.4-2.3-1.1-2.9c-0.8-0.6-2-0.9-3.7-0.9h-1.8v6.9h2.8V64h1.1v5.9h-1.1v-0.4c0-0.7-0.2-1.2-0.5-1.7c-0.4-0.3-1-0.6-1.6-0.6
			h-0.7v10.9h2c1.6,0,2.7-0.3,3.5-0.9c0.7-0.7,1.1-0.6,1.1-2.1v-1.4h1.1V80h-1.1v-1H69.1v-0.9h1.4V60.9c0-0.8-0.1-1.3-0.3-1.5
			C69.6,58.8,68.8,58.9,68.1,58.9z M63.3,66.9L63.3,66.9c1.3,1.1,2,2.7,2,4.7c0,2-0.7,3.6-2,4.8c-1.1,1-2.5,1.6-4.4,1.7
			c-0.2,0-0.4,0-0.7,0c-0.4,0-0.9,0-1.3-0.1c-0.3,0-0.7-0.1-1-0.2V65h2.1C60,65,61.9,65.5,63.3,66.9z M59,59L59,59
			c0.9,0,1.5,0.2,2.1,0.7c0.5,0.5,0.9,1.1,0.9,2c0,0.8-0.3,1.3-0.9,1.9c-0.5,0.4-1.2,0.7-2.1,0.7h-0.1H56V59c0.5,0,2.5,0,2.5,0
			S58.9,59,59,59z M68.2,69.9L68.2,69.9c-0.3-1.2-0.9-2.3-1.8-3.1c-1.4-1.2-3.2-1.9-5.6-2c1.3-0.2,2.2-0.5,2.7-1.1
			c0.7-0.5,1-1.3,1-2.2c0-1.1-0.5-1.9-1.4-2.5c-0.9-0.7-2.2-1-3.7-1c-0.1,0-0.2,0-0.4,0c-0.3,0-0.8,0-1.5,0c-1,0-1.7,0-2.4,0h-4.5
			v1.1h0.5c0.8,0,1.2,0.1,1.5,0.4c0.2,0.2,0.3,0.8,0.3,1.5v17h-1.4V79h7.5c2.8,0,5.1-0.7,6.8-2.1c1.3-1,2.1-2.3,2.4-3.9
			c0.1-0.5,0.1-1.1,0.1-1.6C68.4,70.9,68.3,70.4,68.2,69.9z M40.2,61.8L40.2,61.8l1.9,6.1c-1.3,0-2.7,0-4,0
			C38.8,65.8,39.5,63.8,40.2,61.8z M33.3,78.2L33.3,78.2c-0.5,0-0.9,0-1.4,0V79c1.8,0,3.6,0,5.4,0v-0.9h0c-0.4,0-1.5-0.1-1.8-0.4
			c-0.3-0.2-0.5-0.5-0.5-1.1c0-0.2,0.1-0.5,0.3-1.1l2.2-6.4c1.6,0,3.3,0,4.9,0l2.5,8.9h-1.4V79h6.6v-0.9h-0.7
			c-0.4,0-0.8-0.1-1.1-0.4c-0.3-0.3-0.6-0.6-0.8-1.3L41.3,58h-1.2C37.9,64.8,35.6,71.5,33.3,78.2z M34.2,57.2L34.2,57.2v6.5
			c-0.4,0-0.7,0-1.1,0v-0.2c0-1.5-0.4-2.6-1-3.3c-0.7-0.7-1.9-1-3.4-1h-0.9v17c0,0.7,0.1,1.3,0.4,1.5c0.3,0.3,0.7,0.4,1.5,0.4h0.8
			V79h-8.3v-0.9h2.4V59.2h-1c-1.5,0-2.6,0.3-3.3,1c-0.7,0.7-1,1.8-1,3.3v0.2h-1.1v-6.5h1.1v1.1h13.9v-1.1
			C33.5,57.2,33.8,57.2,34.2,57.2z M161.2,81.7L161.2,81.7L161.2,81.7c0.2,0,0.4,0,0.6,0c0.3,0,1.4-0.2,1.6-0.3L164,82
			c-0.5,0.3-1,0.6-1.6,0.9c-0.4,0.2-0.8,0.3-1.1,0.3l0,0l0,0h0c-0.2,0-0.5,0.1-0.7,0.1c-1.3,0-2.7-0.2-4.7-1.3
			c-0.5-0.3-5.4-3.2-7.2-4.5c-1.9-1.3-4-2.5-6.1-3.6v2.4c0,0.8,0.2,1.2,0.4,1.5c0.3,0.3,0.7,0.4,1.4,0.4h0.5V79H138v-0.9h1.4V60.9
			c0-0.8-0.1-1.3-0.3-1.5c-0.3-0.3-0.8-0.4-1.4-0.4H137v-0.9h5.5v1.3c1.1-0.7,2.1-1.1,3.1-1.3c0.9-0.3,2.1-0.5,3-0.5v0l0.1,0
			c0.1,0,0.3,0,0.4,0h0h0c2.5,0,4.8,0.9,6.5,2.6c2,1.6,2.9,3.6,2.9,5.9c0,2.5-0.9,4.6-2.6,6.2c-1.6,1.5-3.9,2.4-6.7,2.6l8.8,5.8
			c0.7,0.3,1.2,0.6,1.9,0.9C160.3,81.6,160.8,81.6,161.2,81.7z M149,73.9L149,73.9L149,73.9c1.9,0,3.5-0.7,4.7-1.9
			c1.2-1.2,1.9-2.8,1.9-4.8c0-2.3-0.8-4.3-2.4-5.9c-1.2-1.2-2.6-2.1-4.2-2.4v0c-0.1,0-0.3-0.1-0.5-0.1l-0.1,0v0
			c-0.3,0-0.6-0.1-1-0.1c-0.9,0-1.7,0.2-2.6,0.5c-0.9,0.3-1.6,0.8-2.4,1.4v12.1v-1.7c1.3,0.8,3.2,1.9,4,2.2c0.7,0.3,1.3,0.5,2,0.5
			C148.7,73.9,148.9,73.9,149,73.9z"/>
		<path class="st2" d="M122.5,91v-1.6h2.5v0.8l-1.5,4.6h-0.7l1.5-4.8H123V91H122.5z M117.7,93.4h0.6v0.2c0,0.3,0,0.5,0.1,0.6
			c0.1,0.1,0.3,0.2,0.5,0.2c0.2,0,0.4-0.1,0.5-0.2c0.1-0.1,0.2-0.4,0.2-0.7v-1.2c-0.1,0.1-0.2,0.2-0.3,0.3c-0.1,0.1-0.3,0.1-0.4,0.1
			c-0.4,0-0.6-0.1-0.8-0.4c-0.2-0.3-0.3-0.7-0.3-1.3c0-0.5,0.1-0.9,0.3-1.2c0.2-0.3,0.5-0.4,1-0.4c0.4,0,0.7,0.1,0.9,0.4
			c0.2,0.3,0.3,0.7,0.3,1.2v2.2c0,0.6-0.1,1-0.3,1.3c-0.2,0.3-0.5,0.4-0.9,0.4c-0.4,0-0.7-0.1-0.9-0.3c-0.2-0.2-0.3-0.5-0.3-0.9
			V93.4z M118.3,91.2c0,0.3,0.1,0.5,0.2,0.6c0.1,0.2,0.2,0.2,0.4,0.2c0.2,0,0.4-0.1,0.5-0.2c0.1-0.2,0.2-0.4,0.2-0.8v-0.2
			c0-0.3-0.1-0.6-0.2-0.7c-0.1-0.2-0.3-0.2-0.5-0.2c-0.2,0-0.3,0.1-0.4,0.2c-0.1,0.1-0.2,0.4-0.2,0.6V91.2z M114.6,92
			c0.3,0,0.5,0.2,0.6,0.4c0.1,0.2,0.2,0.6,0.2,1.1c0,0.5-0.1,0.9-0.3,1.1c-0.2,0.2-0.5,0.4-0.9,0.4c-0.4,0-0.7-0.1-0.9-0.4
			c-0.2-0.2-0.3-0.6-0.3-1.1c0-0.5,0.1-0.8,0.2-1.1c0.1-0.2,0.3-0.4,0.6-0.4c-0.3,0-0.4-0.1-0.6-0.3c-0.1-0.2-0.2-0.5-0.2-0.8
			c0-0.5,0.1-0.9,0.3-1.2c0.2-0.3,0.5-0.4,0.9-0.4c0.4,0,0.7,0.1,0.9,0.4c0.2,0.3,0.3,0.6,0.3,1.2c0,0.3-0.1,0.6-0.2,0.8
			C115.1,91.8,114.9,91.9,114.6,92z M114.8,90.8v-0.2c0-0.3-0.1-0.5-0.2-0.6c-0.1-0.1-0.2-0.2-0.4-0.2c-0.2,0-0.3,0.1-0.4,0.2
			c-0.1,0.1-0.1,0.3-0.1,0.6v0.2c0,0.3,0,0.5,0.1,0.6c0.1,0.1,0.2,0.2,0.4,0.2c0.2,0,0.3-0.1,0.4-0.2
			C114.7,91.3,114.8,91.1,114.8,90.8z M114.8,93.4v-0.2c0-0.3-0.1-0.5-0.2-0.7c-0.1-0.2-0.3-0.2-0.5-0.2c-0.2,0-0.3,0.1-0.4,0.2
			c-0.1,0.2-0.2,0.4-0.2,0.7v0.2c0,0.3,0,0.6,0.1,0.7c0.1,0.2,0.2,0.2,0.5,0.2c0.2,0,0.4-0.1,0.5-0.2
			C114.7,93.9,114.8,93.7,114.8,93.4z M108.7,94.8v-0.5h0.5v-4.4h-0.5v-0.5h1.1v4.9h0.5v0.5H108.7z M97.9,94.8v-0.5h0.5v-4.5h-0.5
			v-0.5h3.5v1.5h-0.6v-0.9h-1.7v1.7h1.4v0.6h-1.4v2.1h1.7v-1.1h0.6v1.6H97.9z M92.2,89.3h1.4c0.8,0,1.3,0.2,1.7,0.5
			c0.3,0.3,0.5,0.8,0.5,1.6v1.3c0,0.8-0.2,1.3-0.5,1.6c-0.3,0.3-0.8,0.5-1.5,0.5h-1.6v-0.5h0.5v-4.5h-0.5V89.3z M93.5,89.8v4.4h0.2
			c0.5,0,0.9-0.1,1.1-0.4c0.2-0.2,0.3-0.6,0.3-1.2v-1.4c0-0.5-0.1-0.9-0.3-1.1c-0.2-0.2-0.6-0.3-1.1-0.3H93.5z M87.2,94.8v-1.7h0.6
			c0,0.4,0.2,0.7,0.3,0.9c0.2,0.2,0.4,0.3,0.7,0.3c0.2,0,0.4-0.1,0.5-0.2c0.1-0.1,0.2-0.3,0.2-0.5c0-0.2,0-0.3-0.1-0.5
			c-0.1-0.1-0.2-0.3-0.4-0.5L88,91.9c-0.3-0.2-0.4-0.4-0.6-0.7c-0.1-0.2-0.2-0.5-0.2-0.7c0-0.4,0.1-0.7,0.3-0.9
			c0.2-0.2,0.5-0.4,0.9-0.4c0.2,0,0.4,0,0.6,0.1c0.2,0.1,0.3,0.2,0.5,0.4v-0.4H90v1.4h-0.5c-0.1-0.3-0.2-0.5-0.3-0.7
			c-0.2-0.2-0.4-0.2-0.6-0.2c-0.2,0-0.3,0.1-0.5,0.2c-0.1,0.1-0.2,0.3-0.2,0.5c0,0.1,0,0.3,0.1,0.4c0.1,0.1,0.2,0.3,0.4,0.4l1,0.8
			c0.3,0.2,0.5,0.5,0.6,0.7c0.1,0.2,0.2,0.5,0.2,0.8c0,0.4-0.1,0.7-0.4,1c-0.3,0.3-0.6,0.4-1,0.4c-0.2,0-0.4,0-0.6-0.2
			c-0.2-0.1-0.3-0.3-0.5-0.5v0.5H87.2z M81.6,94.8v-0.5h0.5v-4.5h-0.5v-0.5h3.5v1.5h-0.6v-0.9h-1.7v1.7h1.4v0.6h-1.4v2.1h1.7v-1.1
			h0.6v1.6H81.6z M75.9,89.3h1.4c0.8,0,1.3,0.2,1.7,0.5c0.3,0.3,0.5,0.8,0.5,1.6v1.3c0,0.8-0.2,1.3-0.5,1.6
			c-0.3,0.3-0.8,0.5-1.5,0.5h-1.6v-0.5h0.5v-4.5h-0.5V89.3z M77.2,89.8v4.4h0.2c0.5,0,0.9-0.1,1.1-0.4c0.2-0.2,0.3-0.6,0.3-1.2v-1.4
			c0-0.5-0.1-0.9-0.3-1.1c-0.2-0.2-0.6-0.3-1.1-0.3H77.2z M131.8,92.3v-0.8h2.8v0.8H131.8z M66.4,92.3v-0.8h2.8v0.8H66.4z"/>
	</g>
</g>
</svg>
